<svg width="633" height="195" viewBox="0 0 633 195" fill="none" xmlns="http://www.w3.org/2000/svg">
<path d="M105 128C121.569 128 135 114.569 135 98C135 81.4315 121.569 68 105 68C88.4315 68 75 81.4315 75 98C75 114.569 88.4315 128 105 128Z" fill="black"/>
<path d="M105 98L165 38" stroke="black" stroke-width="5"/>
<path d="M165 63C178.807 63 190 51.8071 190 38C190 24.1929 178.807 13 165 13C151.193 13 140 24.1929 140 38C140 51.8071 151.193 63 165 63Z" fill="black"/>
<path d="M105 98L145 158" stroke="black" stroke-width="5"/>
<path d="M145 178C156.046 178 165 169.046 165 158C165 146.954 156.046 138 145 138C133.954 138 125 146.954 125 158C125 169.046 133.954 178 145 178Z" fill="black"/>
<path d="M105 98L65 168" stroke="black" stroke-width="5"/>
<path d="M65 183C73.2843 183 80 176.284 80 168C80 159.716 73.2843 153 65 153C56.7157 153 50 159.716 50 168C50 176.284 56.7157 183 65 183Z" fill="black"/>
<path d="M105 98L45 58" stroke="black" stroke-width="5"/>
<path d="M45 78C56.0457 78 65 69.0457 65 58C65 46.9543 56.0457 38 45 38C33.9543 38 25 46.9543 25 58C25 69.0457 33.9543 78 45 78Z" fill="black"/>
<path d="M245.895 135.065C240.284 135.065 235.455 133.929 231.406 131.656C227.382 129.36 224.28 126.116 222.102 121.926C219.924 117.712 218.835 112.729 218.835 106.976C218.835 101.365 219.924 96.4408 222.102 92.2031C224.28 87.9654 227.346 84.6629 231.3 82.2955C235.277 79.928 239.941 78.7443 245.291 78.7443C248.89 78.7443 252.24 79.3243 255.341 80.4844C258.466 81.6207 261.188 83.3371 263.509 85.6335C265.852 87.9299 267.675 90.8182 268.977 94.2983C270.279 97.7547 270.93 101.803 270.93 106.443V110.598H224.872V101.223H256.69C256.69 99.045 256.217 97.1155 255.27 95.4347C254.323 93.7538 253.009 92.4399 251.328 91.4929C249.671 90.5223 247.741 90.0369 245.54 90.0369C243.243 90.0369 241.207 90.5696 239.432 91.6349C237.68 92.6766 236.307 94.0852 235.312 95.8608C234.318 97.6127 233.809 99.5658 233.786 101.72V110.634C233.786 113.332 234.283 115.664 235.277 117.629C236.295 119.594 237.727 121.109 239.574 122.175C241.42 123.24 243.61 123.773 246.143 123.773C247.824 123.773 249.363 123.536 250.76 123.062C252.157 122.589 253.352 121.879 254.347 120.932C255.341 119.985 256.098 118.825 256.619 117.452L270.611 118.375C269.901 121.737 268.445 124.672 266.243 127.182C264.065 129.668 261.248 131.609 257.791 133.006C254.358 134.379 250.393 135.065 245.895 135.065ZM310.135 79.4545V90.8182H276.47V79.4545H310.135ZM284.176 134V75.5128C284.176 71.5592 284.946 68.2803 286.484 65.6761C288.047 63.072 290.178 61.1188 292.876 59.8168C295.575 58.5147 298.641 57.8636 302.074 57.8636C304.394 57.8636 306.513 58.0412 308.43 58.3963C310.372 58.7514 311.816 59.071 312.763 59.3551L310.064 70.7188C309.472 70.5294 308.738 70.3518 307.862 70.1861C307.01 70.0204 306.134 69.9375 305.234 69.9375C303.009 69.9375 301.458 70.4583 300.582 71.5C299.706 72.518 299.268 73.9503 299.268 75.7969V134H284.176ZM348.709 79.4545V90.8182H315.044V79.4545H348.709ZM322.75 134V75.5128C322.75 71.5592 323.52 68.2803 325.059 65.6761C326.621 63.072 328.752 61.1188 331.451 59.8168C334.15 58.5147 337.215 57.8636 340.648 57.8636C342.968 57.8636 345.087 58.0412 347.005 58.3963C348.946 58.7514 350.39 59.071 351.337 59.3551L348.638 70.7188C348.046 70.5294 347.312 70.3518 346.436 70.1861C345.584 70.0204 344.708 69.9375 343.809 69.9375C341.583 69.9375 340.033 70.4583 339.157 71.5C338.281 72.518 337.843 73.9503 337.843 75.7969V134H322.75ZM357.951 134V79.4545H373.079V134H357.951ZM365.55 72.4233C363.301 72.4233 361.372 71.6776 359.762 70.1861C358.176 68.6709 357.383 66.8598 357.383 64.7528C357.383 62.6695 358.176 60.8821 359.762 59.3906C361.372 57.8755 363.301 57.1179 365.55 57.1179C367.799 57.1179 369.717 57.8755 371.303 59.3906C372.913 60.8821 373.718 62.6695 373.718 64.7528C373.718 66.8598 372.913 68.6709 371.303 70.1861C369.717 71.6776 367.799 72.4233 365.55 72.4233ZM449.65 86.7344H434.096C433.812 84.7221 433.232 82.9347 432.356 81.3722C431.48 79.786 430.356 78.4366 428.983 77.3239C427.609 76.2112 426.023 75.3589 424.224 74.767C422.449 74.1752 420.519 73.8793 418.436 73.8793C414.672 73.8793 411.393 74.8144 408.599 76.6847C405.806 78.5312 403.639 81.2301 402.1 84.7812C400.562 88.3087 399.792 92.5937 399.792 97.6364C399.792 102.821 400.562 107.177 402.1 110.705C403.663 114.232 405.841 116.895 408.635 118.695C411.428 120.494 414.66 121.393 418.329 121.393C420.389 121.393 422.295 121.121 424.047 120.577C425.822 120.032 427.396 119.239 428.77 118.197C430.143 117.132 431.279 115.842 432.179 114.327C433.102 112.812 433.741 111.083 434.096 109.142L449.65 109.213C449.248 112.551 448.242 115.771 446.632 118.872C445.046 121.95 442.903 124.708 440.204 127.146C437.529 129.561 434.333 131.479 430.616 132.899C426.923 134.296 422.744 134.994 418.081 134.994C411.594 134.994 405.794 133.527 400.68 130.591C395.59 127.655 391.565 123.406 388.606 117.842C385.671 112.279 384.203 105.544 384.203 97.6364C384.203 89.7055 385.694 82.9583 388.677 77.3949C391.66 71.8314 395.708 67.5937 400.822 64.6818C405.936 61.7462 411.689 60.2784 418.081 60.2784C422.295 60.2784 426.201 60.8703 429.799 62.054C433.422 63.2377 436.629 64.9659 439.423 67.2386C442.217 69.4877 444.489 72.2457 446.241 75.5128C448.017 78.7798 449.153 82.5204 449.65 86.7344ZM475.52 61.2727V134H460.392V61.2727H475.52ZM522.617 110.776V79.4545H537.745V134H523.221V124.092H522.653C521.422 127.288 519.374 129.857 516.509 131.798C513.668 133.74 510.2 134.71 506.104 134.71C502.459 134.71 499.251 133.882 496.481 132.224C493.711 130.567 491.545 128.212 489.982 125.158C488.443 122.104 487.662 118.446 487.638 114.185V79.4545H502.766V111.486C502.79 114.705 503.654 117.25 505.359 119.121C507.063 120.991 509.348 121.926 512.212 121.926C514.035 121.926 515.74 121.512 517.326 120.683C518.912 119.831 520.191 118.576 521.161 116.919C522.156 115.262 522.641 113.214 522.617 110.776ZM550.13 134V61.2727H565.257V88.6165H565.719C566.382 87.1487 567.341 85.6572 568.596 84.142C569.874 82.6032 571.531 81.3248 573.567 80.3068C575.627 79.2652 578.184 78.7443 581.238 78.7443C585.215 78.7443 588.884 79.786 592.246 81.8693C595.608 83.929 598.295 87.0421 600.307 91.2088C602.319 95.3518 603.326 100.548 603.326 106.798C603.326 112.883 602.343 118.02 600.378 122.21C598.437 126.377 595.785 129.537 592.424 131.692C589.086 133.822 585.345 134.888 581.202 134.888C578.266 134.888 575.769 134.402 573.709 133.432C571.673 132.461 570.004 131.242 568.702 129.774C567.4 128.283 566.406 126.779 565.719 125.264H565.044V134H550.13ZM564.938 106.727C564.938 109.971 565.388 112.8 566.287 115.214C567.187 117.629 568.489 119.511 570.194 120.861C571.898 122.187 573.97 122.849 576.408 122.849C578.87 122.849 580.953 122.175 582.658 120.825C584.363 119.452 585.653 117.558 586.529 115.143C587.428 112.705 587.878 109.9 587.878 106.727C587.878 103.579 587.44 100.809 586.564 98.4176C585.688 96.0265 584.398 94.1562 582.694 92.8068C580.989 91.4574 578.894 90.7827 576.408 90.7827C573.946 90.7827 571.863 91.4337 570.158 92.7358C568.477 94.0379 567.187 95.8845 566.287 98.2756C565.388 100.667 564.938 103.484 564.938 106.727Z" fill="black"/>
</svg>
