<svg xmlns="http://www.w3.org/2000/svg" viewBox="0 0 64 64" role="img" aria-label="TutStar TS favicon">
  <defs>
    <linearGradient id="bg" x1="0" x2="1" y1="0" y2="1">
      <stop offset="0%" stop-color="#0b1220"/>
      <stop offset="100%" stop-color="#1d4ed8"/>
    </linearGradient>
    <linearGradient id="accent" x1="0" x2="1" y1="0" y2="1">
      <stop offset="0%" stop-color="#facc15"/>
      <stop offset="100%" stop-color="#f97316"/>
    </linearGradient>
  </defs>

  <rect x="3" y="3" width="58" height="58" rx="14" fill="url(#bg)"/>

  <!-- T -->
  <rect x="11" y="14" width="25" height="8" rx="2" fill="#ffffff"/>
  <rect x="19" y="21" width="9" height="29" rx="2" fill="#ffffff"/>

  <!-- S (thick, readable at 16x16) -->
  <path d="M52 19H39c-2.8 0-4.8 1.4-4.8 3.5S36.2 26 39 26h7.2c5.1 0 8.8 3.1 8.8 7.7 0 4.8-3.7 8.3-8.8 8.3H31.5"
    fill="none" stroke="url(#accent)" stroke-width="6" stroke-linecap="round" stroke-linejoin="round"/>

  <!-- tiny star hint -->
  <path d="M49.2 10.3l1.5 3.1 3.4.5-2.5 2.4.6 3.4-3-1.6-3 1.6.6-3.4-2.5-2.4 3.4-.5z" fill="#fde68a"/>
</svg>