<svg width="763" height="80" viewBox="0 0 763 80" fill="none" xmlns="http://www.w3.org/2000/svg">
<path d="M186.613 0C201.909 6.28813e-05 215.198 8.58663 221.927 21.2021C223.278 23.736 226.307 25 229.179 25H254.193C259.152 25 269.759 22.5772 272.439 18.4056C279.553 7.33439 291.977 6.33512e-05 306.114 0H452.728C467.211 0 479.895 7.69849 486.914 19.2264C489.397 23.3048 495.715 25.0001 500.49 25H525.506C530.676 25.0002 539.843 22.9151 542.618 18.5533C549.716 7.39973 562.187 6.3632e-05 576.387 0H723C745.091 0 763 17.9086 763 40C763 62.0914 745.091 80 723 80H576.387C562.187 79.9999 549.716 72.6001 542.618 61.4464C539.843 57.0847 530.676 54.9998 525.506 55H500.49C495.715 54.9999 489.397 56.6947 486.914 60.7731C479.895 72.3013 467.211 80 452.728 80H306.114C291.977 79.9999 279.553 72.6655 272.439 61.5941C269.759 57.4228 259.152 55 254.193 55H229.179C226.307 55 223.279 56.2632 221.927 58.7972C215.198 71.413 201.91 79.9999 186.613 80H40C17.9086 80 0 62.0914 0 40C0 17.9086 17.9086 3.59131e-08 40 0H186.613Z" fill="#F0EBFF"/>
<path d="M185.307 5C198.702 5.00005 210.313 12.6345 216.028 23.7895C217.825 27.2957 223.56 29 227.5 29H266.5C269.868 29 273.954 27.5432 275.419 24.5104C280.997 12.9647 292.818 5 306.5 5H452.5C465.917 5 477.544 12.6589 483.249 23.8431C485.024 27.3222 490.594 29 494.5 29H533.5C537.529 29 544.02 27.1586 545.881 23.5854C551.634 12.5414 563.186 5 576.5 5H722.5C741.554 5 757 20.4462 757 39.5C757 58.5538 741.554 74 722.5 74H576.5C563.95 74 552.966 67.2989 546.929 57.2796C544.742 53.6502 537.737 52 533.5 52H494.5C490.36 52 484.306 53.5126 482.194 57.0736C476.185 67.2069 465.136 74 452.5 74H306.5C293.637 74 282.419 66.9603 276.487 56.5236C274.685 53.3532 270.147 52 266.5 52H227.5C223.331 52 217.106 53.5334 214.974 57.1165C208.959 67.226 197.924 74 185.307 74H39.3066C20.2528 74 4.80664 58.5538 4.80664 39.5C4.80664 20.4462 20.2528 5 39.3066 5H185.307Z" fill="url(#paint0_linear_1_334)"/>
<path d="M73.368 47.288C72.136 47.288 71.048 47.08 70.104 46.664C69.16 46.232 68.416 45.624 67.872 44.84C67.328 44.04 67.048 43.072 67.032 41.936H70.272C70.304 42.72 70.584 43.384 71.112 43.928C71.656 44.456 72.4 44.72 73.344 44.72C74.16 44.72 74.808 44.528 75.288 44.144C75.768 43.744 76.008 43.216 76.008 42.56C76.008 41.872 75.792 41.336 75.36 40.952C74.944 40.568 74.384 40.256 73.68 40.016C72.976 39.776 72.224 39.52 71.424 39.248C70.128 38.8 69.136 38.224 68.448 37.52C67.776 36.816 67.44 35.88 67.44 34.712C67.424 33.72 67.656 32.872 68.136 32.168C68.632 31.448 69.304 30.896 70.152 30.512C71 30.112 71.976 29.912 73.08 29.912C74.2 29.912 75.184 30.112 76.032 30.512C76.896 30.912 77.568 31.472 78.048 32.192C78.544 32.912 78.808 33.768 78.84 34.76H75.552C75.536 34.168 75.304 33.648 74.856 33.2C74.424 32.736 73.816 32.504 73.032 32.504C72.36 32.488 71.792 32.656 71.328 33.008C70.88 33.344 70.656 33.84 70.656 34.496C70.656 35.056 70.832 35.504 71.184 35.84C71.536 36.16 72.016 36.432 72.624 36.656C73.232 36.88 73.928 37.12 74.712 37.376C75.544 37.664 76.304 38 76.992 38.384C77.68 38.768 78.232 39.28 78.648 39.92C79.064 40.544 79.272 41.352 79.272 42.344C79.272 43.224 79.048 44.04 78.6 44.792C78.152 45.544 77.488 46.152 76.608 46.616C75.728 47.064 74.648 47.288 73.368 47.288ZM83.5363 33.248C82.9763 33.248 82.5123 33.08 82.1443 32.744C81.7923 32.408 81.6163 31.984 81.6163 31.472C81.6163 30.96 81.7923 30.544 82.1443 30.224C82.5123 29.888 82.9763 29.72 83.5363 29.72C84.0963 29.72 84.5523 29.888 84.9043 30.224C85.2723 30.544 85.4563 30.96 85.4563 31.472C85.4563 31.984 85.2723 32.408 84.9043 32.744C84.5523 33.08 84.0963 33.248 83.5363 33.248ZM82.0003 47V35.096H85.0723V47H82.0003ZM93.3188 43.448C92.7428 43.448 92.2068 43.384 91.7108 43.256L90.8228 44.144C91.0948 44.288 91.4628 44.408 91.9268 44.504C92.3908 44.6 93.1428 44.696 94.1828 44.792C95.7668 44.936 96.9188 45.312 97.6388 45.92C98.3588 46.528 98.7188 47.368 98.7188 48.44C98.7188 49.144 98.5268 49.808 98.1428 50.432C97.7588 51.072 97.1668 51.584 96.3668 51.968C95.5668 52.368 94.5428 52.568 93.2948 52.568C91.5988 52.568 90.2308 52.248 89.1908 51.608C88.1508 50.984 87.6308 50.04 87.6308 48.776C87.6308 47.704 88.1508 46.776 89.1908 45.992C88.8708 45.848 88.5908 45.696 88.3508 45.536C88.1268 45.376 87.9268 45.208 87.7508 45.032V44.48L89.8388 42.272C88.9108 41.456 88.4468 40.408 88.4468 39.128C88.4468 38.328 88.6388 37.6 89.0228 36.944C89.4228 36.288 89.9828 35.768 90.7028 35.384C91.4228 35 92.2948 34.808 93.3188 34.808C93.9908 34.808 94.6148 34.904 95.1908 35.096H99.7028V36.968L97.6628 37.112C97.9828 37.72 98.1428 38.392 98.1428 39.128C98.1428 39.928 97.9508 40.656 97.5668 41.312C97.1828 41.968 96.6228 42.488 95.8868 42.872C95.1668 43.256 94.3108 43.448 93.3188 43.448ZM93.3188 41.096C93.9428 41.096 94.4548 40.928 94.8548 40.592C95.2708 40.256 95.4788 39.776 95.4788 39.152C95.4788 38.528 95.2708 38.048 94.8548 37.712C94.4548 37.376 93.9428 37.208 93.3188 37.208C92.6628 37.208 92.1348 37.376 91.7348 37.712C91.3348 38.048 91.1348 38.528 91.1348 39.152C91.1348 39.776 91.3348 40.256 91.7348 40.592C92.1348 40.928 92.6628 41.096 93.3188 41.096ZM90.4388 48.464C90.4388 49.056 90.7108 49.496 91.2548 49.784C91.8148 50.088 92.4948 50.24 93.2948 50.24C94.0628 50.24 94.6868 50.08 95.1668 49.76C95.6468 49.456 95.8868 49.04 95.8868 48.512C95.8868 48.08 95.7268 47.72 95.4068 47.432C95.1028 47.144 94.4868 46.968 93.5588 46.904C92.9028 46.856 92.2948 46.784 91.7348 46.688C91.2708 46.944 90.9348 47.224 90.7268 47.528C90.5348 47.832 90.4388 48.144 90.4388 48.464ZM101.943 47V35.096H104.655L104.895 37.112C105.263 36.408 105.791 35.848 106.479 35.432C107.183 35.016 108.007 34.808 108.951 34.808C110.423 34.808 111.567 35.272 112.383 36.2C113.199 37.128 113.607 38.488 113.607 40.28V47H110.535V40.568C110.535 39.544 110.327 38.76 109.911 38.216C109.495 37.672 108.847 37.4 107.967 37.4C107.103 37.4 106.391 37.704 105.831 38.312C105.287 38.92 105.015 39.768 105.015 40.856V47H101.943ZM121.008 47.288C119.52 47.288 118.368 46.824 117.552 45.896C116.752 44.968 116.352 43.608 116.352 41.816V35.096H119.4V41.528C119.4 42.552 119.608 43.336 120.024 43.88C120.44 44.424 121.096 44.696 121.992 44.696C122.84 44.696 123.536 44.392 124.08 43.784C124.64 43.176 124.92 42.328 124.92 41.24V35.096H127.992V47H125.28L125.04 44.984C124.672 45.688 124.136 46.248 123.432 46.664C122.744 47.08 121.936 47.288 121.008 47.288ZM131.146 52.28V35.096H133.882L134.218 36.8C134.602 36.272 135.106 35.808 135.73 35.408C136.37 35.008 137.194 34.808 138.202 34.808C139.322 34.808 140.322 35.08 141.202 35.624C142.082 36.168 142.778 36.912 143.29 37.856C143.802 38.8 144.058 39.872 144.058 41.072C144.058 42.272 143.802 43.344 143.29 44.288C142.778 45.216 142.082 45.952 141.202 46.496C140.322 47.024 139.322 47.288 138.202 47.288C137.306 47.288 136.522 47.12 135.85 46.784C135.178 46.448 134.634 45.976 134.218 45.368V52.28H131.146ZM137.554 44.6C138.53 44.6 139.338 44.272 139.978 43.616C140.618 42.96 140.938 42.112 140.938 41.072C140.938 40.032 140.618 39.176 139.978 38.504C139.338 37.832 138.53 37.496 137.554 37.496C136.562 37.496 135.746 37.832 135.106 38.504C134.482 39.16 134.17 40.008 134.17 41.048C134.17 42.088 134.482 42.944 135.106 43.616C135.746 44.272 136.562 44.6 137.554 44.6Z" fill="white"/>
<path d="M330.368 47.288C329.136 47.288 328.048 47.08 327.104 46.664C326.16 46.232 325.416 45.624 324.872 44.84C324.328 44.04 324.048 43.072 324.032 41.936H327.272C327.304 42.72 327.584 43.384 328.112 43.928C328.656 44.456 329.4 44.72 330.344 44.72C331.16 44.72 331.808 44.528 332.288 44.144C332.768 43.744 333.008 43.216 333.008 42.56C333.008 41.872 332.792 41.336 332.36 40.952C331.944 40.568 331.384 40.256 330.68 40.016C329.976 39.776 329.224 39.52 328.424 39.248C327.128 38.8 326.136 38.224 325.448 37.52C324.776 36.816 324.44 35.88 324.44 34.712C324.424 33.72 324.656 32.872 325.136 32.168C325.632 31.448 326.304 30.896 327.152 30.512C328 30.112 328.976 29.912 330.08 29.912C331.2 29.912 332.184 30.112 333.032 30.512C333.896 30.912 334.568 31.472 335.048 32.192C335.544 32.912 335.808 33.768 335.84 34.76H332.552C332.536 34.168 332.304 33.648 331.856 33.2C331.424 32.736 330.816 32.504 330.032 32.504C329.36 32.488 328.792 32.656 328.328 33.008C327.88 33.344 327.656 33.84 327.656 34.496C327.656 35.056 327.832 35.504 328.184 35.84C328.536 36.16 329.016 36.432 329.624 36.656C330.232 36.88 330.928 37.12 331.712 37.376C332.544 37.664 333.304 38 333.992 38.384C334.68 38.768 335.232 39.28 335.648 39.92C336.064 40.544 336.272 41.352 336.272 42.344C336.272 43.224 336.048 44.04 335.6 44.792C335.152 45.544 334.488 46.152 333.608 46.616C332.728 47.064 331.648 47.288 330.368 47.288ZM343.344 47.288C341.856 47.288 340.704 46.824 339.888 45.896C339.088 44.968 338.688 43.608 338.688 41.816V35.096H341.736V41.528C341.736 42.552 341.944 43.336 342.36 43.88C342.776 44.424 343.432 44.696 344.328 44.696C345.176 44.696 345.872 44.392 346.416 43.784C346.976 43.176 347.256 42.328 347.256 41.24V35.096H350.328V47H347.616L347.376 44.984C347.008 45.688 346.472 46.248 345.768 46.664C345.08 47.08 344.272 47.288 343.344 47.288ZM360.538 47.288C359.642 47.288 358.858 47.12 358.186 46.784C357.514 46.448 356.97 45.976 356.554 45.368L356.218 47H353.482V29.72H356.554V36.8C356.938 36.272 357.442 35.808 358.066 35.408C358.706 35.008 359.53 34.808 360.538 34.808C361.658 34.808 362.658 35.08 363.538 35.624C364.418 36.168 365.114 36.912 365.626 37.856C366.138 38.8 366.394 39.872 366.394 41.072C366.394 42.272 366.138 43.344 365.626 44.288C365.114 45.216 364.418 45.952 363.538 46.496C362.658 47.024 361.658 47.288 360.538 47.288ZM359.89 44.6C360.866 44.6 361.674 44.272 362.314 43.616C362.954 42.96 363.274 42.112 363.274 41.072C363.274 40.032 362.954 39.176 362.314 38.504C361.674 37.832 360.866 37.496 359.89 37.496C358.898 37.496 358.082 37.832 357.442 38.504C356.818 39.16 356.506 40.008 356.506 41.048C356.506 42.088 356.818 42.944 357.442 43.616C358.082 44.272 358.898 44.6 359.89 44.6ZM374.058 47.288C373.002 47.288 372.074 47.12 371.274 46.784C370.474 46.432 369.834 45.952 369.354 45.344C368.874 44.736 368.586 44.032 368.49 43.232H371.586C371.682 43.696 371.938 44.096 372.354 44.432C372.786 44.752 373.338 44.912 374.01 44.912C374.682 44.912 375.17 44.776 375.474 44.504C375.794 44.232 375.954 43.92 375.954 43.568C375.954 43.056 375.73 42.712 375.282 42.536C374.834 42.344 374.21 42.16 373.41 41.984C372.898 41.872 372.378 41.736 371.85 41.576C371.322 41.416 370.834 41.216 370.386 40.976C369.954 40.72 369.602 40.4 369.33 40.016C369.058 39.616 368.922 39.128 368.922 38.552C368.922 37.496 369.338 36.608 370.17 35.888C371.018 35.168 372.202 34.808 373.722 34.808C375.13 34.808 376.25 35.136 377.082 35.792C377.93 36.448 378.434 37.352 378.594 38.504H375.69C375.514 37.624 374.85 37.184 373.698 37.184C373.122 37.184 372.674 37.296 372.354 37.52C372.05 37.744 371.898 38.024 371.898 38.36C371.898 38.712 372.13 38.992 372.594 39.2C373.058 39.408 373.674 39.6 374.442 39.776C375.274 39.968 376.034 40.184 376.722 40.424C377.426 40.648 377.986 40.992 378.402 41.456C378.818 41.904 379.026 42.552 379.026 43.4C379.042 44.136 378.85 44.8 378.45 45.392C378.05 45.984 377.474 46.448 376.722 46.784C375.97 47.12 375.082 47.288 374.058 47.288ZM387.58 47.288C386.364 47.288 385.292 47.024 384.364 46.496C383.436 45.968 382.7 45.232 382.156 44.288C381.628 43.344 381.364 42.264 381.364 41.048C381.364 39.832 381.628 38.752 382.156 37.808C382.7 36.864 383.436 36.128 384.364 35.6C385.292 35.072 386.364 34.808 387.58 34.808C389.1 34.808 390.38 35.208 391.42 36.008C392.46 36.792 393.124 37.88 393.411 39.272H390.172C390.012 38.696 389.692 38.248 389.212 37.928C388.748 37.592 388.196 37.424 387.556 37.424C386.708 37.424 385.988 37.744 385.396 38.384C384.804 39.024 384.508 39.912 384.508 41.048C384.508 42.184 384.804 43.072 385.396 43.712C385.988 44.352 386.708 44.672 387.556 44.672C388.196 44.672 388.748 44.512 389.212 44.192C389.692 43.872 390.012 43.416 390.172 42.824H393.411C393.124 44.168 392.46 45.248 391.42 46.064C390.38 46.88 389.1 47.288 387.58 47.288ZM396.138 47V35.096H398.874L399.162 37.328C399.594 36.56 400.178 35.952 400.914 35.504C401.666 35.04 402.546 34.808 403.554 34.808V38.048H402.69C402.018 38.048 401.418 38.152 400.89 38.36C400.362 38.568 399.946 38.928 399.642 39.44C399.354 39.952 399.21 40.664 399.21 41.576V47H396.138ZM407.31 33.248C406.75 33.248 406.286 33.08 405.918 32.744C405.566 32.408 405.39 31.984 405.39 31.472C405.39 30.96 405.566 30.544 405.918 30.224C406.286 29.888 406.75 29.72 407.31 29.72C407.87 29.72 408.326 29.888 408.678 30.224C409.046 30.544 409.23 30.96 409.23 31.472C409.23 31.984 409.046 32.408 408.678 32.744C408.326 33.08 407.87 33.248 407.31 33.248ZM405.774 47V35.096H408.846V47H405.774ZM419.108 47.288C418.212 47.288 417.428 47.12 416.756 46.784C416.084 46.448 415.54 45.976 415.124 45.368L414.788 47H412.052V29.72H415.124V36.8C415.508 36.272 416.012 35.808 416.636 35.408C417.276 35.008 418.1 34.808 419.108 34.808C420.228 34.808 421.228 35.08 422.108 35.624C422.988 36.168 423.684 36.912 424.196 37.856C424.708 38.8 424.964 39.872 424.964 41.072C424.964 42.272 424.708 43.344 424.196 44.288C423.684 45.216 422.988 45.952 422.108 46.496C421.228 47.024 420.228 47.288 419.108 47.288ZM418.46 44.6C419.436 44.6 420.244 44.272 420.884 43.616C421.524 42.96 421.844 42.112 421.844 41.072C421.844 40.032 421.524 39.176 420.884 38.504C420.244 37.832 419.436 37.496 418.46 37.496C417.468 37.496 416.652 37.832 416.012 38.504C415.388 39.16 415.076 40.008 415.076 41.048C415.076 42.088 415.388 42.944 416.012 43.616C416.652 44.272 417.468 44.6 418.46 44.6ZM433.492 47.288C432.292 47.288 431.228 47.032 430.3 46.52C429.372 46.008 428.644 45.288 428.116 44.36C427.588 43.432 427.324 42.36 427.324 41.144C427.324 39.912 427.58 38.816 428.092 37.856C428.62 36.896 429.34 36.152 430.252 35.624C431.18 35.08 432.268 34.808 433.516 34.808C434.684 34.808 435.716 35.064 436.612 35.576C437.508 36.088 438.204 36.792 438.7 37.688C439.212 38.568 439.468 39.552 439.468 40.64C439.468 40.816 439.46 41 439.444 41.192C439.444 41.384 439.436 41.584 439.42 41.792H430.372C430.436 42.72 430.756 43.448 431.332 43.976C431.924 44.504 432.636 44.768 433.468 44.768C434.092 44.768 434.612 44.632 435.028 44.36C435.46 44.072 435.78 43.704 435.988 43.256H439.108C438.884 44.008 438.508 44.696 437.98 45.32C437.468 45.928 436.828 46.408 436.06 46.76C435.308 47.112 434.452 47.288 433.492 47.288ZM433.516 37.304C432.764 37.304 432.1 37.52 431.524 37.952C430.948 38.368 430.58 39.008 430.42 39.872H436.348C436.3 39.088 436.012 38.464 435.484 38C434.956 37.536 434.3 37.304 433.516 37.304Z" fill="white"/>
<path d="M600.024 47.288C598.392 47.288 597.08 46.832 596.088 45.92C595.112 44.992 594.624 43.68 594.624 41.984H597.696C597.712 42.768 597.896 43.392 598.248 43.856C598.6 44.32 599.168 44.552 599.952 44.552C600.688 44.552 601.224 44.336 601.56 43.904C601.896 43.456 602.064 42.872 602.064 42.152V30.2H605.136V42.152C605.136 43.8 604.672 45.072 603.744 45.968C602.832 46.848 601.592 47.288 600.024 47.288ZM614.045 47.288C612.893 47.288 611.853 47.024 610.925 46.496C610.013 45.968 609.285 45.24 608.741 44.312C608.213 43.368 607.949 42.28 607.949 41.048C607.949 39.816 608.221 38.736 608.765 37.808C609.309 36.864 610.037 36.128 610.949 35.6C611.877 35.072 612.917 34.808 614.069 34.808C615.205 34.808 616.229 35.072 617.141 35.6C618.069 36.128 618.797 36.864 619.325 37.808C619.869 38.736 620.141 39.816 620.141 41.048C620.141 42.28 619.869 43.368 619.325 44.312C618.797 45.24 618.069 45.968 617.141 46.496C616.213 47.024 615.181 47.288 614.045 47.288ZM614.045 44.624C614.845 44.624 615.541 44.328 616.133 43.736C616.725 43.128 617.021 42.232 617.021 41.048C617.021 39.864 616.725 38.976 616.133 38.384C615.541 37.776 614.853 37.472 614.069 37.472C613.253 37.472 612.549 37.776 611.957 38.384C611.381 38.976 611.093 39.864 611.093 41.048C611.093 42.232 611.381 43.128 611.957 43.736C612.549 44.328 613.245 44.624 614.045 44.624ZM624.544 33.248C623.984 33.248 623.52 33.08 623.152 32.744C622.8 32.408 622.624 31.984 622.624 31.472C622.624 30.96 622.8 30.544 623.152 30.224C623.52 29.888 623.984 29.72 624.544 29.72C625.104 29.72 625.56 29.888 625.912 30.224C626.28 30.544 626.464 30.96 626.464 31.472C626.464 31.984 626.28 32.408 625.912 32.744C625.56 33.08 625.104 33.248 624.544 33.248ZM623.008 47V35.096H626.08V47H623.008ZM629.287 47V35.096H631.999L632.239 37.112C632.607 36.408 633.135 35.848 633.823 35.432C634.527 35.016 635.351 34.808 636.295 34.808C637.767 34.808 638.911 35.272 639.727 36.2C640.543 37.128 640.951 38.488 640.951 40.28V47H637.879V40.568C637.879 39.544 637.671 38.76 637.255 38.216C636.839 37.672 636.191 37.4 635.311 37.4C634.447 37.4 633.735 37.704 633.175 38.312C632.631 38.92 632.359 39.768 632.359 40.856V47H629.287ZM655.439 47.288C654.223 47.288 653.151 47.024 652.223 46.496C651.295 45.968 650.559 45.232 650.015 44.288C649.487 43.344 649.223 42.264 649.223 41.048C649.223 39.832 649.487 38.752 650.015 37.808C650.559 36.864 651.295 36.128 652.223 35.6C653.151 35.072 654.223 34.808 655.439 34.808C656.959 34.808 658.239 35.208 659.279 36.008C660.319 36.792 660.983 37.88 661.271 39.272H658.031C657.871 38.696 657.551 38.248 657.071 37.928C656.607 37.592 656.055 37.424 655.415 37.424C654.567 37.424 653.847 37.744 653.255 38.384C652.663 39.024 652.367 39.912 652.367 41.048C652.367 42.184 652.663 43.072 653.255 43.712C653.847 44.352 654.567 44.672 655.415 44.672C656.055 44.672 656.607 44.512 657.071 44.192C657.551 43.872 657.871 43.416 658.031 42.824H661.271C660.983 44.168 660.319 45.248 659.279 46.064C658.239 46.88 656.959 47.288 655.439 47.288ZM663.998 47V29.72H667.07V47H663.998ZM674.312 47.288C673.288 47.288 672.448 47.128 671.792 46.808C671.136 46.472 670.648 46.032 670.328 45.488C670.008 44.944 669.848 44.344 669.848 43.688C669.848 42.584 670.28 41.688 671.144 41C672.008 40.312 673.304 39.968 675.032 39.968H678.056V39.68C678.056 38.864 677.824 38.264 677.36 37.88C676.896 37.496 676.32 37.304 675.632 37.304C675.008 37.304 674.464 37.456 674 37.76C673.536 38.048 673.248 38.48 673.136 39.056H670.136C670.216 38.192 670.504 37.44 671 36.8C671.512 36.16 672.168 35.672 672.968 35.336C673.768 34.984 674.664 34.808 675.656 34.808C677.352 34.808 678.688 35.232 679.664 36.08C680.64 36.928 681.128 38.128 681.128 39.68V47H678.512L678.224 45.08C677.872 45.72 677.376 46.248 676.736 46.664C676.112 47.08 675.304 47.288 674.312 47.288ZM675.008 44.888C675.888 44.888 676.568 44.6 677.048 44.024C677.544 43.448 677.856 42.736 677.984 41.888H675.368C674.552 41.888 673.968 42.04 673.616 42.344C673.264 42.632 673.088 42.992 673.088 43.424C673.088 43.888 673.264 44.248 673.616 44.504C673.968 44.76 674.432 44.888 675.008 44.888ZM688.98 47.288C687.924 47.288 686.996 47.12 686.196 46.784C685.396 46.432 684.756 45.952 684.276 45.344C683.796 44.736 683.508 44.032 683.412 43.232H686.508C686.604 43.696 686.86 44.096 687.276 44.432C687.708 44.752 688.26 44.912 688.932 44.912C689.604 44.912 690.092 44.776 690.396 44.504C690.716 44.232 690.876 43.92 690.876 43.568C690.876 43.056 690.652 42.712 690.204 42.536C689.756 42.344 689.132 42.16 688.332 41.984C687.82 41.872 687.3 41.736 686.772 41.576C686.244 41.416 685.756 41.216 685.308 40.976C684.876 40.72 684.524 40.4 684.252 40.016C683.98 39.616 683.844 39.128 683.844 38.552C683.844 37.496 684.26 36.608 685.092 35.888C685.94 35.168 687.124 34.808 688.644 34.808C690.052 34.808 691.172 35.136 692.004 35.792C692.852 36.448 693.356 37.352 693.516 38.504H690.612C690.436 37.624 689.772 37.184 688.62 37.184C688.044 37.184 687.596 37.296 687.276 37.52C686.972 37.744 686.82 38.024 686.82 38.36C686.82 38.712 687.052 38.992 687.516 39.2C687.98 39.408 688.596 39.6 689.364 39.776C690.196 39.968 690.956 40.184 691.644 40.424C692.348 40.648 692.908 40.992 693.324 41.456C693.74 41.904 693.948 42.552 693.948 43.4C693.964 44.136 693.772 44.8 693.372 45.392C692.972 45.984 692.396 46.448 691.644 46.784C690.892 47.12 690.004 47.288 688.98 47.288ZM701.589 47.288C700.533 47.288 699.605 47.12 698.805 46.784C698.005 46.432 697.365 45.952 696.885 45.344C696.405 44.736 696.117 44.032 696.021 43.232H699.117C699.213 43.696 699.469 44.096 699.885 44.432C700.317 44.752 700.869 44.912 701.541 44.912C702.213 44.912 702.701 44.776 703.005 44.504C703.325 44.232 703.485 43.92 703.485 43.568C703.485 43.056 703.261 42.712 702.813 42.536C702.365 42.344 701.741 42.16 700.941 41.984C700.429 41.872 699.909 41.736 699.381 41.576C698.853 41.416 698.365 41.216 697.917 40.976C697.485 40.72 697.133 40.4 696.861 40.016C696.589 39.616 696.453 39.128 696.453 38.552C696.453 37.496 696.869 36.608 697.701 35.888C698.549 35.168 699.733 34.808 701.253 34.808C702.661 34.808 703.781 35.136 704.613 35.792C705.461 36.448 705.965 37.352 706.125 38.504H703.221C703.045 37.624 702.381 37.184 701.229 37.184C700.653 37.184 700.205 37.296 699.885 37.52C699.581 37.744 699.429 38.024 699.429 38.36C699.429 38.712 699.661 38.992 700.125 39.2C700.589 39.408 701.205 39.6 701.973 39.776C702.805 39.968 703.565 40.184 704.253 40.424C704.957 40.648 705.517 40.992 705.933 41.456C706.349 41.904 706.557 42.552 706.557 43.4C706.573 44.136 706.381 44.8 705.981 45.392C705.581 45.984 705.005 46.448 704.253 46.784C703.501 47.12 702.613 47.288 701.589 47.288Z" fill="white"/>
<defs>
<linearGradient id="paint0_linear_1_334" x1="360" y1="40" x2="323" y2="213" gradientUnits="userSpaceOnUse">
<stop stop-color="#FBC343"/>
<stop offset="1" stop-color="#FF7353"/>
</linearGradient>
</defs>
</svg>
