<svg width="121" height="117" viewBox="0 0 121 117" fill="none" xmlns="http://www.w3.org/2000/svg">
<ellipse cx="60.5" cy="58.5" rx="60.5" ry="58.5" fill="white"/>
<circle cx="60.5" cy="58.5" r="23.5" fill="#81D959"/>
<path d="M45 64L59.5 72L78 52.5" stroke="white"/>
<path d="M61.7669 12.9655L61.8577 12.1896L67.2753 12.8235L67.1845 13.5995L64.913 13.3337L64.1585 19.7812L63.2838 19.6788L64.0383 13.2313L61.7669 12.9655Z" fill="#323232"/>
<path d="M70.7147 20.7256L73.2133 13.8955L75.5211 14.7398C76.0547 14.935 76.4593 15.1864 76.735 15.4939C77.0115 15.7993 77.1743 16.1399 77.2233 16.5158C77.2724 16.8917 77.2233 17.2808 77.0761 17.6833C76.9289 18.0857 76.7161 18.4124 76.4377 18.6635C76.1593 18.9146 75.8175 19.0669 75.4122 19.1203C75.0078 19.1715 74.541 19.1003 74.0119 18.9067L72.1443 18.2235L72.4176 17.4765L74.2585 18.1499C74.6231 18.2833 74.9361 18.3373 75.1975 18.3119C75.4611 18.2874 75.6787 18.1955 75.8503 18.0365C76.025 17.876 76.1623 17.6591 76.2623 17.3856C76.3624 17.1121 76.3987 16.8544 76.3712 16.6124C76.3438 16.3705 76.2381 16.1529 76.0542 15.9595C75.8711 15.764 75.5951 15.5987 75.226 15.4637L73.7719 14.9318L71.5418 21.0282L70.7147 20.7256ZM75.0521 18.8335L75.6105 22.5166L74.65 22.1652L74.1183 18.4919L75.0521 18.8335Z" fill="#323232"/>
<path d="M87.4919 20.7124L88.223 21.2034L85.5381 25.2008C85.2609 25.6135 84.9161 25.9166 84.5038 26.1102C84.0947 26.3032 83.6516 26.3749 83.1744 26.3253C82.6985 26.2737 82.2238 26.0889 81.7501 25.7708C81.2765 25.4527 80.9258 25.0831 80.6981 24.6621C80.4717 24.2391 80.3695 23.8011 80.3914 23.3481C80.4166 22.8945 80.5678 22.4613 80.845 22.0486L83.5299 18.0513L84.261 18.5423L81.6157 22.4807C81.4177 22.7755 81.3063 23.0814 81.2816 23.3985C81.2582 23.7136 81.3221 24.0175 81.4735 24.3102C81.6281 24.6023 81.8734 24.8612 82.2095 25.0869C82.5455 25.3126 82.878 25.4418 83.2068 25.4744C83.537 25.5051 83.8425 25.4494 84.1234 25.3072C84.4075 25.1644 84.6486 24.9456 84.8466 24.6508L87.4919 20.7124Z" fill="#323232"/>
<path d="M94.3438 29.0884C94.5807 28.8142 94.6703 28.4982 94.6127 28.1404C94.5551 27.7825 94.3778 27.4411 94.0807 27.116C93.8636 26.8783 93.6351 26.7055 93.3953 26.5975C93.1571 26.4912 92.9252 26.4498 92.6996 26.4731C92.4756 26.4982 92.278 26.589 92.1067 26.7455C91.9634 26.8765 91.8713 27.0232 91.8305 27.1855C91.793 27.3481 91.7897 27.5147 91.8205 27.6853C91.8531 27.8543 91.9019 28.0182 91.9668 28.177C92.0334 28.3342 92.0992 28.4745 92.164 28.5981L92.5154 29.2775C92.6065 29.4509 92.698 29.6527 92.7898 29.8831C92.8832 30.1152 92.9459 30.361 92.9778 30.6205C93.013 30.8802 92.9912 31.1406 92.9124 31.4018C92.8336 31.663 92.6684 31.9086 92.4167 32.1386C92.1266 32.4037 91.795 32.5672 91.4219 32.6291C91.0503 32.6928 90.663 32.6427 90.2598 32.4788C89.8583 32.3166 89.469 32.0292 89.0921 31.6168C88.7408 31.2323 88.4986 30.8427 88.3656 30.4479C88.2342 30.0549 88.2059 29.6766 88.281 29.313C88.3576 28.9511 88.5331 28.6256 88.8076 28.3363L89.4208 29.0074C89.2341 29.2102 89.1286 29.4316 89.1044 29.6718C89.0835 29.9122 89.1245 30.1537 89.2276 30.3963C89.3339 30.639 89.4845 30.867 89.6794 31.0802C89.9061 31.3284 90.1499 31.5145 90.4108 31.6385C90.6734 31.7609 90.9299 31.8135 91.1804 31.7963C91.4326 31.7775 91.6566 31.6787 91.8523 31.4998C92.0306 31.3369 92.1301 31.1546 92.1509 30.9528C92.1717 30.7509 92.1428 30.5368 92.0642 30.3104C91.9856 30.084 91.8863 29.8525 91.7662 29.6158L91.3513 28.7827C91.0886 28.2531 90.9574 27.7637 90.9575 27.3146C90.9576 26.8655 91.1385 26.4757 91.5003 26.1451C91.8009 25.8704 92.1373 25.7122 92.5095 25.6703C92.8851 25.6286 93.2611 25.6891 93.6375 25.8518C94.0172 26.0147 94.3636 26.2674 94.6766 26.61C94.9928 26.956 95.2119 27.3203 95.3337 27.7028C95.4573 28.0837 95.4844 28.4503 95.4149 28.8024C95.347 29.1562 95.1816 29.4613 94.9187 29.7176L94.3438 29.0884Z" fill="#323232"/>
<path d="M93.8249 36.8838L100.168 33.3264L102.315 37.1547L101.634 37.5368L99.9176 34.4767L97.7742 35.6787L99.3792 38.5406L98.6978 38.9227L97.0928 36.0608L94.9371 37.2698L96.681 40.3795L95.9996 40.7616L93.8249 36.8838Z" fill="#323232"/>
<path d="M98.786 47.088L98.1784 44.9275L105.18 42.9585L105.814 45.2148C106.005 45.8939 106.028 46.5145 105.884 47.0765C105.742 47.6378 105.446 48.1206 104.996 48.5249C104.549 48.9286 103.963 49.2323 103.239 49.4361C102.509 49.6412 101.845 49.6879 101.245 49.5762C100.648 49.4638 100.138 49.1989 99.716 48.7815C99.296 48.3635 98.986 47.799 98.786 47.088ZM99.1689 45.5638L99.5227 46.8218C99.6855 47.4006 99.9321 47.849 100.262 48.1667C100.593 48.4845 100.991 48.6789 101.456 48.7497C101.921 48.8206 102.438 48.7759 103.008 48.6157C103.573 48.4567 104.034 48.2276 104.39 47.9283C104.748 47.6283 104.985 47.2641 105.101 46.8356C105.218 46.4066 105.2 45.9185 105.047 45.3716L104.666 44.0178L99.1689 45.5638Z" fill="#323232"/>
<path d="M107.426 62.4187L108.199 62.5327L107.403 67.9288L106.63 67.8148L106.964 65.5524L100.542 64.6048L100.671 63.7336L107.093 64.6811L107.426 62.4187Z" fill="#323232"/>
<path d="M99.401 71.128L106.153 73.8316L105.239 76.1128C105.028 76.6403 104.764 77.0372 104.449 77.3035C104.135 77.5706 103.79 77.7231 103.412 77.7607C103.035 77.7984 102.648 77.7376 102.25 77.5783C101.852 77.419 101.532 77.1964 101.289 76.9106C101.047 76.6247 100.905 76.2785 100.864 75.8718C100.825 75.466 100.91 75.0016 101.12 74.4785L101.859 72.6324L102.597 72.9281L101.869 74.7479C101.724 75.1083 101.661 75.4195 101.678 75.6815C101.695 75.9458 101.78 76.166 101.934 76.3424C102.089 76.5218 102.302 76.6656 102.572 76.7739C102.842 76.8821 103.099 76.9262 103.342 76.9061C103.584 76.8859 103.805 76.7869 104.004 76.6089C104.205 76.4318 104.378 76.1609 104.524 75.796L105.1 74.3587L99.0736 71.9455L99.401 71.128ZM101.161 75.5204L97.4631 75.9675L97.8433 75.018L101.531 74.5974L101.161 75.5204Z" fill="#323232"/>
<path d="M98.903 87.9068L98.3902 88.6228L94.4756 85.8186C94.0714 85.5291 93.7788 85.1753 93.5977 84.7573C93.4172 84.3426 93.3589 83.8975 93.4228 83.4221C93.4887 82.948 93.6878 82.479 94.02 82.0152C94.3523 81.5513 94.7322 81.212 95.1599 80.9971C95.5895 80.7835 96.0304 80.6946 96.4825 80.7301C96.9352 80.769 97.3636 80.9332 97.7678 81.2227L101.682 84.0269L101.17 84.7428L97.3126 81.98C97.024 81.7732 96.7215 81.6527 96.4054 81.6184C96.0911 81.5855 95.7854 81.6403 95.4883 81.7827C95.1917 81.9284 94.9255 82.1658 94.6898 82.4949C94.454 82.824 94.3149 83.1525 94.2723 83.4802C94.2317 83.8093 94.2782 84.1163 94.4118 84.4013C94.546 84.6897 94.7575 84.9372 95.0461 85.144L98.903 87.9068Z" fill="#323232"/>
<path d="M90.327 94.5015C90.594 94.7465 90.9072 94.8456 91.2666 94.7988C91.626 94.7519 91.9726 94.5849 92.3065 94.2977C92.5505 94.0878 92.7302 93.8646 92.8453 93.6281C92.9586 93.3932 93.007 93.1627 92.9904 92.9365C92.9721 92.7118 92.8872 92.5116 92.7359 92.3357C92.6093 92.1885 92.4655 92.0921 92.3044 92.0464C92.1431 92.004 91.9767 91.9957 91.8052 92.0215C91.6352 92.049 91.4699 92.0928 91.3093 92.1529C91.1502 92.2148 91.0079 92.2763 90.8825 92.3374L90.1928 92.6683C90.0168 92.7541 89.8123 92.8395 89.5793 92.9244C89.3445 93.0108 89.0969 93.0661 88.8366 93.0902C88.576 93.1176 88.3163 93.088 88.0576 93.0014C87.7989 92.9148 87.5583 92.7423 87.336 92.4838C87.0798 92.1859 86.9262 91.8495 86.8755 91.4747C86.823 91.1015 86.8847 90.7158 87.0607 90.3177C87.2348 89.9212 87.5337 89.5408 87.9573 89.1764C88.3521 88.8368 88.7488 88.6064 89.1474 88.4852C89.5442 88.3656 89.9232 88.3488 90.2843 88.4347C90.6437 88.5221 90.9639 88.7074 91.2448 88.9903L90.5556 89.5832C90.3586 89.3904 90.1404 89.2783 89.901 89.2469C89.6614 89.2188 89.4188 89.2527 89.1732 89.3484C88.9274 89.4474 88.695 89.5911 88.476 89.7794C88.2212 89.9987 88.0278 90.2368 87.896 90.4938C87.7658 90.7526 87.7055 91.0075 87.7152 91.2583C87.7264 91.511 87.8185 91.7378 87.9914 91.9388C88.1489 92.1219 88.3282 92.2268 88.5293 92.2537C88.7304 92.2806 88.9453 92.2581 89.174 92.1863C89.4026 92.1145 89.637 92.0222 89.8772 91.9093L90.7223 91.5196C91.2596 91.2729 91.7527 91.1563 92.2016 91.1699C92.6504 91.1835 93.0347 91.3761 93.3543 91.7476C93.6198 92.0563 93.7679 92.3973 93.7986 92.7706C93.8291 93.1472 93.7573 93.5212 93.5834 93.8926C93.4092 94.2673 93.1462 94.6059 92.7944 94.9085C92.439 95.2142 92.0683 95.4222 91.6823 95.5326C91.2979 95.6447 90.9307 95.6607 90.5808 95.5807C90.2291 95.5022 89.9292 95.3278 89.6809 95.0573L90.327 94.5015Z" fill="#323232"/>
<path d="M82.5506 93.7492L85.9144 100.197L82.0229 102.227L81.6616 101.535L84.7723 99.9119L83.6356 97.7332L80.7265 99.2509L80.3651 98.5582L83.2743 97.0405L82.1311 94.8492L78.9701 96.4983L78.6087 95.8057L82.5506 93.7492Z" fill="#323232"/>
<path d="M72.1948 98.4005L74.3729 97.8592L76.127 104.917L73.8524 105.483C73.1678 105.653 72.5468 105.657 71.9895 105.495C71.4327 105.336 70.9592 105.026 70.5688 104.564C70.179 104.105 69.8933 103.51 69.7117 102.779C69.529 102.044 69.5027 101.379 69.6327 100.783C69.7633 100.189 70.0436 99.6877 70.4737 99.2784C70.9043 98.8713 71.478 98.5787 72.1948 98.4005ZM73.7067 98.8298L72.4384 99.145C71.8548 99.2901 71.3992 99.5228 71.0715 99.8433C70.7437 100.164 70.5373 100.555 70.4523 101.018C70.3672 101.481 70.3961 101.999 70.5388 102.574C70.6804 103.143 70.8954 103.611 71.1837 103.976C71.4726 104.343 71.8294 104.591 72.2541 104.72C72.6794 104.851 73.1677 104.848 73.7191 104.711L75.0839 104.371L73.7067 98.8298Z" fill="#323232"/>
<path d="M56.6306 106.576L56.4935 107.345L51.1236 106.388L51.2608 105.619L53.5122 106.02L54.6516 99.6293L55.5186 99.7839L54.3792 106.175L56.6306 106.576Z" fill="#323232"/>
<path d="M48.1571 98.2902L45.2504 104.957L42.9978 103.975C42.477 103.748 42.0883 103.472 41.8317 103.149C41.5741 102.827 41.4322 102.477 41.406 102.099C41.3797 101.721 41.4523 101.335 41.6235 100.943C41.7948 100.55 42.0269 100.237 42.32 100.003C42.613 99.769 42.9634 99.6376 43.3712 99.6088C43.7779 99.5821 44.2396 99.6814 44.7561 99.9066L46.579 100.701L46.261 101.431L44.4642 100.647C44.1083 100.492 43.7991 100.419 43.5367 100.429C43.2721 100.437 43.0493 100.516 42.8684 100.664C42.6844 100.814 42.5342 101.022 42.4178 101.289C42.3014 101.556 42.2496 101.811 42.2624 102.054C42.2751 102.297 42.3675 102.521 42.5393 102.725C42.7103 102.931 42.9759 103.113 43.3361 103.27L44.7554 103.889L47.3498 97.9383L48.1571 98.2902ZM43.7133 99.9168L43.3785 96.2067L44.316 96.6155L44.6248 100.314L43.7133 99.9168Z" fill="#323232"/>
<path d="M31.3962 97.2829L30.696 96.7487L33.6168 92.9203C33.9183 92.525 34.2808 92.2432 34.704 92.0748C35.124 91.9068 35.5706 91.862 36.044 91.9402C36.5158 92.0203 36.9786 92.2334 37.4322 92.5794C37.8858 92.9255 38.2136 93.3155 38.4155 93.7495C38.616 94.1853 38.6917 94.6287 38.6425 95.0795C38.5901 95.5308 38.413 95.9541 38.1115 96.3494L35.1907 100.178L34.4906 99.6436L37.3682 95.8716C37.5836 95.5893 37.7132 95.2907 37.757 94.9757C37.7993 94.6626 37.7538 94.3554 37.6204 94.0541C37.4837 93.7532 37.2544 93.48 36.9325 93.2345C36.6106 92.9889 36.2866 92.8399 35.9603 92.7875C35.6326 92.737 35.3242 92.7743 35.0353 92.8993C34.7431 93.0247 34.4893 93.2286 34.2739 93.5109L31.3962 97.2829Z" fill="#323232"/>
<path d="M25.0636 88.5142C24.8107 88.7737 24.7022 89.0838 24.7383 89.4444C24.7743 89.8051 24.9309 90.1566 25.2079 90.4989C25.4104 90.7491 25.6281 90.9354 25.861 91.0575C26.0924 91.1779 26.3214 91.2332 26.548 91.2234C26.7731 91.2118 26.9758 91.133 27.1562 90.987C27.3071 90.8649 27.4078 90.724 27.4583 90.5644C27.5054 90.4044 27.5187 90.2383 27.4982 90.0661C27.4758 89.8954 27.4369 89.7289 27.3817 89.5665C27.3246 89.4057 27.2674 89.2616 27.2101 89.1344L26.9 88.4351C26.8195 88.2566 26.7403 88.0496 26.6625 87.8142C26.5831 87.5769 26.5353 87.3277 26.5191 87.0668C26.4995 86.8055 26.5368 86.5469 26.6312 86.2908C26.7255 86.0348 26.9051 85.7996 27.1702 85.5851C27.4756 85.3379 27.8165 85.1946 28.1926 85.1551C28.5673 85.1138 28.951 85.1871 29.3436 85.3749C29.7347 85.5609 30.106 85.8711 30.4575 86.3054C30.7851 86.7102 31.0035 87.1137 31.1126 87.5157C31.2202 87.9159 31.2257 88.2952 31.129 88.6537C31.0308 89.0103 30.836 89.3247 30.5447 89.597L29.9728 88.8903C30.1714 88.6992 30.29 88.4844 30.3286 88.2461C30.3639 88.0074 30.3374 87.7639 30.2491 87.5156C30.1575 87.2669 30.0208 87.0303 29.8391 86.8058C29.6276 86.5445 29.3954 86.3441 29.1425 86.2046C28.8877 86.0667 28.6348 85.9988 28.3837 86.0009C28.1309 86.0046 27.9014 86.0898 27.6953 86.2566C27.5075 86.4085 27.3972 86.5845 27.3644 86.7848C27.3315 86.985 27.3475 87.2004 27.4124 87.4311C27.4772 87.6619 27.5625 87.8989 27.6681 88.1424L28.0323 88.9989C28.2628 89.5433 28.3645 90.0396 28.3374 90.4879C28.3104 90.9362 28.1064 91.3145 27.7254 91.6227C27.4089 91.8789 27.0636 92.0167 26.6895 92.0362C26.3121 92.0553 25.9405 91.9724 25.5745 91.7874C25.2052 91.602 24.8746 91.3289 24.5827 90.9682C24.2878 90.6039 24.091 90.2271 23.9923 89.8379C23.8918 89.4503 23.8868 89.0828 23.9773 88.7355C24.0663 88.3863 24.2497 88.0917 24.5275 87.8517L25.0636 88.5142Z" fill="#323232"/>
<path d="M26.0477 80.7618L19.5006 83.9285L17.5895 79.9772L18.2928 79.637L19.8204 82.7955L22.0327 81.7255L20.604 78.7716L21.3073 78.4315L22.736 81.3853L24.961 80.3092L23.4086 77.0996L24.1119 76.7594L26.0477 80.7618Z" fill="#323232"/>
<path d="M21.7115 70.2613L22.1858 72.4549L15.0773 73.9918L14.582 71.7009C14.4329 71.0114 14.4477 70.3906 14.6262 69.8385C14.8025 69.2869 15.1273 68.823 15.6006 68.447C16.0717 68.0715 16.6751 67.8041 17.411 67.6451C18.1514 67.485 18.8174 67.479 19.409 67.6273C19.9982 67.776 20.4909 68.0715 20.8869 68.514C21.2805 68.9569 21.5554 69.5393 21.7115 70.2613ZM21.2361 71.7592L20.9599 70.4819C20.8328 69.8941 20.6141 69.4316 20.3038 69.0942C19.9935 68.7568 19.6084 68.5385 19.1486 68.4393C18.6887 68.3401 18.1696 68.353 17.5911 68.4781C17.0172 68.6021 16.5434 68.8027 16.1698 69.0797C15.7938 69.3571 15.535 69.7062 15.3934 70.1267C15.2495 70.5478 15.2376 71.036 15.3576 71.5914L15.6548 72.9659L21.2361 71.7592Z" fill="#323232"/>
<path d="M14.0078 54.4824L13.2431 54.3222L14.3611 48.9835L15.1258 49.1436L14.657 51.382L21.0107 52.7125L20.8302 53.5745L14.4765 52.244L14.0078 54.4824Z" fill="#323232"/>
<path d="M22.5511 46.2431L15.9762 43.1346L17.0265 40.913C17.2694 40.3993 17.5565 40.0192 17.8878 39.7726C18.217 39.5249 18.571 39.3938 18.9498 39.3791C19.3286 39.3644 19.7117 39.4486 20.0991 39.6318C20.4865 39.8149 20.7925 40.0565 21.0173 40.3566C21.2421 40.6566 21.3626 41.0108 21.379 41.4192C21.3933 41.8266 21.28 42.285 21.0392 42.7944L20.1892 44.5923L19.4701 44.2523L20.3079 42.4801C20.4739 42.1291 20.5561 41.8223 20.5545 41.5597C20.554 41.295 20.4823 41.0699 20.3395 40.8846C20.1956 40.6961 19.992 40.5396 19.7287 40.4151C19.4655 40.2906 19.2121 40.2311 18.9687 40.2364C18.7252 40.2418 18.4989 40.3273 18.2897 40.4928C18.0783 40.6574 17.8886 40.9173 17.7207 41.2726L17.0589 42.6724L22.9275 45.447L22.5511 46.2431ZM21.0607 41.7519L24.7793 41.5303L24.3421 42.4549L20.6357 42.6508L21.0607 41.7519Z" fill="#323232"/>
<path d="M24.0624 29.5259L24.6174 28.8421L28.3563 31.8766C28.7423 32.1899 29.0131 32.5606 29.1687 32.9888C29.324 33.4136 29.3554 33.8614 29.263 34.3322C29.1687 34.8014 28.9418 35.2576 28.5823 35.7006C28.2227 36.1436 27.823 36.4595 27.3832 36.6483C26.9415 36.8356 26.4961 36.8979 26.047 36.8352C25.5974 36.7692 25.1797 36.5795 24.7937 36.2662L21.0548 33.2317L21.6098 32.5479L25.2935 35.5377C25.5692 35.7615 25.8639 35.9 26.1774 35.9532C26.4891 36.0049 26.7975 35.9686 27.1027 35.8443C27.4075 35.7167 27.6875 35.4957 27.9426 35.1814C28.1977 34.8671 28.3564 34.5476 28.4185 34.2231C28.4789 33.897 28.4509 33.5877 28.3347 33.2952C28.2181 32.9993 28.0219 32.7395 27.7462 32.5157L24.0624 29.5259Z" fill="#323232"/>
<path d="M33.0173 23.4596C32.7655 23.199 32.4588 23.0812 32.0972 23.1064C31.7356 23.1316 31.3796 23.2775 31.0292 23.5441C30.7729 23.739 30.5802 23.951 30.4511 24.1801C30.3238 24.4078 30.2617 24.635 30.2647 24.8618C30.2695 25.0872 30.3422 25.2922 30.4826 25.4768C30.6002 25.6313 30.7379 25.7362 30.896 25.7915C31.0545 25.8435 31.2201 25.8617 31.3928 25.8464C31.5641 25.8291 31.7317 25.7953 31.8957 25.7449C32.0582 25.6927 32.2039 25.6399 32.3328 25.5864L33.0411 25.2975C33.222 25.2224 33.4312 25.1495 33.6689 25.0787C33.9085 25.0066 34.1589 24.9663 34.4202 24.9579C34.682 24.9461 34.9394 24.9913 35.1925 25.0932C35.4455 25.1952 35.6753 25.3819 35.8817 25.6532C36.1196 25.966 36.2526 26.311 36.2808 26.6882C36.3108 27.0639 36.226 27.4452 36.0265 27.832C35.8288 28.2173 35.5076 28.5791 35.0629 28.9174C34.6484 29.2327 34.2386 29.4388 33.8335 29.5358C33.4302 29.6314 33.0509 29.6254 32.6955 29.518C32.342 29.4091 32.0336 29.205 31.7702 28.9057L32.4937 28.3553C32.6788 28.5595 32.8899 28.6845 33.127 28.7302C33.3645 28.7727 33.6087 28.7535 33.8595 28.6727C34.1109 28.5886 34.3515 28.4591 34.5814 28.2843C34.8489 28.0807 35.0562 27.8547 35.2032 27.606C35.3487 27.3555 35.4242 27.1047 35.4296 26.8537C35.4336 26.6009 35.3553 26.3689 35.1947 26.1579C35.0486 25.9657 34.8759 25.8501 34.6768 25.8113C34.4776 25.7724 34.2618 25.7819 34.0292 25.8398C33.7966 25.8977 33.5571 25.9758 33.3106 26.0741L32.4436 26.4124C31.8925 26.6264 31.3933 26.7131 30.946 26.6726C30.4988 26.6321 30.1268 26.4168 29.8301 26.0267C29.5836 25.7027 29.4562 25.3534 29.448 24.9789C29.4402 24.6011 29.5343 24.2321 29.7302 23.8718C29.9266 23.5083 30.2095 23.186 30.5788 22.9051C30.9519 22.6213 31.3344 22.4359 31.7263 22.349C32.1168 22.2602 32.4843 22.2662 32.8287 22.3671C33.1751 22.4665 33.464 22.6587 33.6956 22.9436L33.0173 23.4596Z" fill="#323232"/>
<path d="M40.7402 24.6742L37.7744 18.0337L41.7821 16.2438L42.1007 16.9571L38.8971 18.3879L39.8992 20.6317L42.8952 19.2936L43.2138 20.0069L40.2178 21.345L41.2257 23.6018L44.4811 22.1478L44.7997 22.8612L40.7402 24.6742Z" fill="#323232"/>
<path d="M51.3566 20.6631L49.1497 21.071L47.8279 13.9194L50.1326 13.4935C50.8264 13.3652 51.4465 13.3987 51.9929 13.5938C52.539 13.7866 52.9928 14.1253 53.3544 14.6098C53.7155 15.0919 53.9645 15.7032 54.1013 16.4435C54.239 17.1884 54.2249 17.8543 54.0589 18.4411C53.8924 19.0256 53.5821 19.5091 53.128 19.8916C52.6734 20.2717 52.0829 20.5289 51.3566 20.6631ZM49.8737 20.1427L51.1588 19.9052C51.7501 19.7959 52.219 19.5913 52.5656 19.2913C52.9123 18.9913 53.1421 18.613 53.2551 18.1563C53.3681 17.6997 53.3708 17.1804 53.2633 16.5984C53.1566 16.021 52.9704 15.5414 52.7048 15.1596C52.4388 14.7754 52.0978 14.5062 51.6816 14.352C51.2651 14.1954 50.7775 14.1688 50.2188 14.272L48.8359 14.5276L49.8737 20.1427Z" fill="#323232"/>
</svg>
