<svg width="771" height="80" viewBox="0 0 771 80" fill="none" xmlns="http://www.w3.org/2000/svg">
<path d="M188.989 0C204.31 5.14728e-05 217.617 8.61482 224.335 21.2639C225.657 23.7526 228.617 25.0001 231.435 25H257.006C261.972 25.0001 272.543 22.5872 275.227 18.4088C282.341 7.33579 294.766 5.27855e-05 308.904 0H457.894C472.385 0 485.075 7.70668 492.091 19.2448C494.563 23.3099 500.833 25 505.591 25H531.162C536.334 25.0002 545.464 22.9223 548.24 18.5581C555.337 7.40186 567.809 0 582.011 0H731C753.091 0.000107204 771 17.9087 771 40C771 62.0913 753.091 79.9999 731 80H582.011C567.809 80 555.337 72.598 548.24 61.4415C545.464 57.0774 536.334 54.9998 531.162 55H505.591C500.833 55 494.563 56.6895 492.091 60.7547C485.075 72.2931 472.385 80 457.894 80H308.904C294.765 80 282.34 72.6641 275.227 61.5909C272.543 57.4127 261.972 54.9999 257.006 55H231.435C228.617 54.9999 225.657 56.2466 224.335 58.7353C217.617 71.3848 204.311 79.9999 188.989 80H40C17.9086 80 0 62.0914 0 40C0 17.9086 17.9086 0 40 0H188.989Z" fill="#F0EBFF"/>
<path d="M187.611 5C201.011 5 212.626 12.6395 218.339 23.8007C220.132 27.3015 225.832 29 229.765 29H269.415C272.762 29 276.805 27.5496 278.259 24.5347C283.832 12.9758 295.66 5 309.352 5H457.606C471.027 5 482.658 12.6642 488.361 23.8547C490.132 27.3276 495.667 29 499.565 29H539.214C543.242 29 549.701 27.1646 551.561 23.5923C557.312 12.5445 568.867 5 582.183 5H730.437C749.491 5.00007 764.937 20.4462 764.937 39.5C764.937 58.5538 749.491 73.9999 730.437 74H582.182C569.63 73.9998 558.643 67.2961 552.607 57.2737C550.422 53.6445 543.451 52 539.214 52H499.565C495.431 52 489.413 53.5088 487.305 57.0648C481.297 67.203 470.245 74 457.606 74H309.352C296.481 74 285.257 66.9515 279.327 56.504C277.537 53.3497 273.042 52 269.415 52H229.765C225.601 52 219.412 53.5288 217.284 57.1078C211.27 67.2221 200.232 74 187.611 74H39.3569C20.3031 74 4.85693 58.5538 4.85693 39.5C4.85693 20.4462 20.3032 5.00006 39.3569 5H187.611Z" fill="url(#paint0_linear_1043_279)"/>
<path d="M74.0599 47.288C72.8279 47.288 71.7399 47.08 70.7959 46.664C69.8519 46.232 69.1079 45.624 68.5639 44.84C68.0199 44.04 67.7399 43.072 67.7239 41.936H70.9639C70.9959 42.72 71.2759 43.384 71.8039 43.928C72.3479 44.456 73.0919 44.72 74.0359 44.72C74.8519 44.72 75.4999 44.528 75.9799 44.144C76.4599 43.744 76.6999 43.216 76.6999 42.56C76.6999 41.872 76.4839 41.336 76.0519 40.952C75.6359 40.568 75.0759 40.256 74.3719 40.016C73.6679 39.776 72.9159 39.52 72.1159 39.248C70.8199 38.8 69.8279 38.224 69.1399 37.52C68.4679 36.816 68.1319 35.88 68.1319 34.712C68.1159 33.72 68.3479 32.872 68.8279 32.168C69.3239 31.448 69.9959 30.896 70.8439 30.512C71.6919 30.112 72.6679 29.912 73.7719 29.912C74.8919 29.912 75.8759 30.112 76.7239 30.512C77.5879 30.912 78.2599 31.472 78.7399 32.192C79.2359 32.912 79.4999 33.768 79.5319 34.76H76.2439C76.2279 34.168 75.9959 33.648 75.5479 33.2C75.1159 32.736 74.5079 32.504 73.7239 32.504C73.0519 32.488 72.4839 32.656 72.0199 33.008C71.5719 33.344 71.3479 33.84 71.3479 34.496C71.3479 35.056 71.5239 35.504 71.8759 35.84C72.2279 36.16 72.7079 36.432 73.3159 36.656C73.9239 36.88 74.6199 37.12 75.4039 37.376C76.2359 37.664 76.9959 38 77.6839 38.384C78.3719 38.768 78.9239 39.28 79.3399 39.92C79.7559 40.544 79.9639 41.352 79.9639 42.344C79.9639 43.224 79.7399 44.04 79.2919 44.792C78.8439 45.544 78.1799 46.152 77.2999 46.616C76.4199 47.064 75.3399 47.288 74.0599 47.288ZM84.2282 33.248C83.6682 33.248 83.2042 33.08 82.8362 32.744C82.4842 32.408 82.3082 31.984 82.3082 31.472C82.3082 30.96 82.4842 30.544 82.8362 30.224C83.2042 29.888 83.6682 29.72 84.2282 29.72C84.7882 29.72 85.2442 29.888 85.5962 30.224C85.9642 30.544 86.1482 30.96 86.1482 31.472C86.1482 31.984 85.9642 32.408 85.5962 32.744C85.2442 33.08 84.7882 33.248 84.2282 33.248ZM82.6922 47V35.096H85.7642V47H82.6922ZM94.0106 43.448C93.4346 43.448 92.8986 43.384 92.4026 43.256L91.5146 44.144C91.7866 44.288 92.1546 44.408 92.6186 44.504C93.0826 44.6 93.8346 44.696 94.8746 44.792C96.4586 44.936 97.6106 45.312 98.3306 45.92C99.0506 46.528 99.4106 47.368 99.4106 48.44C99.4106 49.144 99.2186 49.808 98.8346 50.432C98.4506 51.072 97.8586 51.584 97.0586 51.968C96.2586 52.368 95.2346 52.568 93.9866 52.568C92.2906 52.568 90.9226 52.248 89.8826 51.608C88.8426 50.984 88.3226 50.04 88.3226 48.776C88.3226 47.704 88.8426 46.776 89.8826 45.992C89.5626 45.848 89.2826 45.696 89.0426 45.536C88.8186 45.376 88.6186 45.208 88.4426 45.032V44.48L90.5306 42.272C89.6026 41.456 89.1386 40.408 89.1386 39.128C89.1386 38.328 89.3306 37.6 89.7146 36.944C90.1146 36.288 90.6746 35.768 91.3946 35.384C92.1146 35 92.9866 34.808 94.0106 34.808C94.6826 34.808 95.3066 34.904 95.8826 35.096H100.395V36.968L98.3546 37.112C98.6746 37.72 98.8346 38.392 98.8346 39.128C98.8346 39.928 98.6426 40.656 98.2586 41.312C97.8746 41.968 97.3146 42.488 96.5786 42.872C95.8586 43.256 95.0026 43.448 94.0106 43.448ZM94.0106 41.096C94.6346 41.096 95.1466 40.928 95.5466 40.592C95.9626 40.256 96.1706 39.776 96.1706 39.152C96.1706 38.528 95.9626 38.048 95.5466 37.712C95.1466 37.376 94.6346 37.208 94.0106 37.208C93.3546 37.208 92.8266 37.376 92.4266 37.712C92.0266 38.048 91.8266 38.528 91.8266 39.152C91.8266 39.776 92.0266 40.256 92.4266 40.592C92.8266 40.928 93.3546 41.096 94.0106 41.096ZM91.1306 48.464C91.1306 49.056 91.4026 49.496 91.9466 49.784C92.5066 50.088 93.1866 50.24 93.9866 50.24C94.7546 50.24 95.3786 50.08 95.8586 49.76C96.3386 49.456 96.5786 49.04 96.5786 48.512C96.5786 48.08 96.4186 47.72 96.0986 47.432C95.7946 47.144 95.1786 46.968 94.2506 46.904C93.5946 46.856 92.9866 46.784 92.4266 46.688C91.9626 46.944 91.6266 47.224 91.4186 47.528C91.2266 47.832 91.1306 48.144 91.1306 48.464ZM102.635 47V35.096H105.347L105.587 37.112C105.955 36.408 106.483 35.848 107.171 35.432C107.875 35.016 108.699 34.808 109.643 34.808C111.115 34.808 112.259 35.272 113.075 36.2C113.891 37.128 114.299 38.488 114.299 40.28V47H111.227V40.568C111.227 39.544 111.019 38.76 110.603 38.216C110.187 37.672 109.539 37.4 108.659 37.4C107.795 37.4 107.083 37.704 106.523 38.312C105.979 38.92 105.707 39.768 105.707 40.856V47H102.635ZM121.7 47.288C120.212 47.288 119.06 46.824 118.244 45.896C117.444 44.968 117.044 43.608 117.044 41.816V35.096H120.092V41.528C120.092 42.552 120.3 43.336 120.716 43.88C121.132 44.424 121.788 44.696 122.684 44.696C123.532 44.696 124.228 44.392 124.772 43.784C125.332 43.176 125.612 42.328 125.612 41.24V35.096H128.684V47H125.972L125.732 44.984C125.364 45.688 124.828 46.248 124.124 46.664C123.436 47.08 122.628 47.288 121.7 47.288ZM131.838 52.28V35.096H134.574L134.91 36.8C135.294 36.272 135.798 35.808 136.422 35.408C137.062 35.008 137.886 34.808 138.894 34.808C140.014 34.808 141.014 35.08 141.894 35.624C142.774 36.168 143.47 36.912 143.982 37.856C144.494 38.8 144.75 39.872 144.75 41.072C144.75 42.272 144.494 43.344 143.982 44.288C143.47 45.216 142.774 45.952 141.894 46.496C141.014 47.024 140.014 47.288 138.894 47.288C137.998 47.288 137.214 47.12 136.542 46.784C135.87 46.448 135.326 45.976 134.91 45.368V52.28H131.838ZM138.246 44.6C139.222 44.6 140.03 44.272 140.67 43.616C141.31 42.96 141.63 42.112 141.63 41.072C141.63 40.032 141.31 39.176 140.67 38.504C140.03 37.832 139.222 37.496 138.246 37.496C137.254 37.496 136.438 37.832 135.798 38.504C135.174 39.16 134.862 40.008 134.862 41.048C134.862 42.088 135.174 42.944 135.798 43.616C136.438 44.272 137.254 44.6 138.246 44.6Z" fill="white"/>
<path d="M333.755 47.288C332.523 47.288 331.435 47.08 330.491 46.664C329.547 46.232 328.803 45.624 328.259 44.84C327.715 44.04 327.435 43.072 327.419 41.936H330.659C330.691 42.72 330.971 43.384 331.499 43.928C332.043 44.456 332.787 44.72 333.731 44.72C334.547 44.72 335.195 44.528 335.675 44.144C336.155 43.744 336.395 43.216 336.395 42.56C336.395 41.872 336.179 41.336 335.747 40.952C335.331 40.568 334.771 40.256 334.067 40.016C333.363 39.776 332.611 39.52 331.811 39.248C330.515 38.8 329.523 38.224 328.835 37.52C328.163 36.816 327.827 35.88 327.827 34.712C327.811 33.72 328.043 32.872 328.523 32.168C329.019 31.448 329.691 30.896 330.539 30.512C331.387 30.112 332.363 29.912 333.467 29.912C334.587 29.912 335.571 30.112 336.419 30.512C337.283 30.912 337.955 31.472 338.435 32.192C338.931 32.912 339.195 33.768 339.227 34.76H335.939C335.923 34.168 335.691 33.648 335.243 33.2C334.811 32.736 334.203 32.504 333.419 32.504C332.747 32.488 332.179 32.656 331.715 33.008C331.267 33.344 331.043 33.84 331.043 34.496C331.043 35.056 331.219 35.504 331.571 35.84C331.923 36.16 332.403 36.432 333.011 36.656C333.619 36.88 334.315 37.12 335.099 37.376C335.931 37.664 336.691 38 337.379 38.384C338.067 38.768 338.619 39.28 339.035 39.92C339.451 40.544 339.659 41.352 339.659 42.344C339.659 43.224 339.435 44.04 338.987 44.792C338.539 45.544 337.875 46.152 336.995 46.616C336.115 47.064 335.035 47.288 333.755 47.288ZM346.731 47.288C345.243 47.288 344.091 46.824 343.275 45.896C342.475 44.968 342.075 43.608 342.075 41.816V35.096H345.123V41.528C345.123 42.552 345.331 43.336 345.747 43.88C346.163 44.424 346.819 44.696 347.715 44.696C348.563 44.696 349.259 44.392 349.803 43.784C350.363 43.176 350.643 42.328 350.643 41.24V35.096H353.715V47H351.003L350.763 44.984C350.395 45.688 349.859 46.248 349.155 46.664C348.467 47.08 347.659 47.288 346.731 47.288ZM363.925 47.288C363.029 47.288 362.245 47.12 361.573 46.784C360.901 46.448 360.357 45.976 359.941 45.368L359.605 47H356.869V29.72H359.941V36.8C360.325 36.272 360.829 35.808 361.453 35.408C362.093 35.008 362.917 34.808 363.925 34.808C365.045 34.808 366.045 35.08 366.925 35.624C367.805 36.168 368.501 36.912 369.013 37.856C369.525 38.8 369.781 39.872 369.781 41.072C369.781 42.272 369.525 43.344 369.013 44.288C368.501 45.216 367.805 45.952 366.925 46.496C366.045 47.024 365.045 47.288 363.925 47.288ZM363.277 44.6C364.253 44.6 365.061 44.272 365.701 43.616C366.341 42.96 366.661 42.112 366.661 41.072C366.661 40.032 366.341 39.176 365.701 38.504C365.061 37.832 364.253 37.496 363.277 37.496C362.285 37.496 361.469 37.832 360.829 38.504C360.205 39.16 359.893 40.008 359.893 41.048C359.893 42.088 360.205 42.944 360.829 43.616C361.469 44.272 362.285 44.6 363.277 44.6ZM377.445 47.288C376.389 47.288 375.461 47.12 374.661 46.784C373.861 46.432 373.221 45.952 372.741 45.344C372.261 44.736 371.973 44.032 371.877 43.232H374.973C375.069 43.696 375.325 44.096 375.741 44.432C376.173 44.752 376.725 44.912 377.397 44.912C378.069 44.912 378.557 44.776 378.861 44.504C379.181 44.232 379.341 43.92 379.341 43.568C379.341 43.056 379.117 42.712 378.669 42.536C378.221 42.344 377.597 42.16 376.797 41.984C376.285 41.872 375.765 41.736 375.237 41.576C374.709 41.416 374.221 41.216 373.773 40.976C373.341 40.72 372.989 40.4 372.717 40.016C372.445 39.616 372.309 39.128 372.309 38.552C372.309 37.496 372.725 36.608 373.557 35.888C374.405 35.168 375.589 34.808 377.109 34.808C378.517 34.808 379.637 35.136 380.469 35.792C381.317 36.448 381.821 37.352 381.981 38.504H379.077C378.901 37.624 378.237 37.184 377.085 37.184C376.509 37.184 376.061 37.296 375.741 37.52C375.437 37.744 375.285 38.024 375.285 38.36C375.285 38.712 375.517 38.992 375.981 39.2C376.445 39.408 377.061 39.6 377.829 39.776C378.661 39.968 379.421 40.184 380.109 40.424C380.813 40.648 381.373 40.992 381.789 41.456C382.205 41.904 382.413 42.552 382.413 43.4C382.429 44.136 382.237 44.8 381.837 45.392C381.437 45.984 380.861 46.448 380.109 46.784C379.357 47.12 378.469 47.288 377.445 47.288ZM390.966 47.288C389.75 47.288 388.678 47.024 387.75 46.496C386.822 45.968 386.086 45.232 385.542 44.288C385.014 43.344 384.75 42.264 384.75 41.048C384.75 39.832 385.014 38.752 385.542 37.808C386.086 36.864 386.822 36.128 387.75 35.6C388.678 35.072 389.75 34.808 390.966 34.808C392.486 34.808 393.766 35.208 394.806 36.008C395.846 36.792 396.51 37.88 396.798 39.272H393.558C393.398 38.696 393.078 38.248 392.598 37.928C392.134 37.592 391.582 37.424 390.942 37.424C390.094 37.424 389.374 37.744 388.782 38.384C388.19 39.024 387.894 39.912 387.894 41.048C387.894 42.184 388.19 43.072 388.782 43.712C389.374 44.352 390.094 44.672 390.942 44.672C391.582 44.672 392.134 44.512 392.598 44.192C393.078 43.872 393.398 43.416 393.558 42.824H396.798C396.51 44.168 395.846 45.248 394.806 46.064C393.766 46.88 392.486 47.288 390.966 47.288ZM399.525 47V35.096H402.261L402.549 37.328C402.981 36.56 403.565 35.952 404.301 35.504C405.053 35.04 405.933 34.808 406.941 34.808V38.048H406.077C405.405 38.048 404.805 38.152 404.277 38.36C403.749 38.568 403.333 38.928 403.029 39.44C402.741 39.952 402.597 40.664 402.597 41.576V47H399.525ZM410.696 33.248C410.136 33.248 409.672 33.08 409.304 32.744C408.952 32.408 408.776 31.984 408.776 31.472C408.776 30.96 408.952 30.544 409.304 30.224C409.672 29.888 410.136 29.72 410.696 29.72C411.256 29.72 411.712 29.888 412.064 30.224C412.432 30.544 412.616 30.96 412.616 31.472C412.616 31.984 412.432 32.408 412.064 32.744C411.712 33.08 411.256 33.248 410.696 33.248ZM409.16 47V35.096H412.232V47H409.16ZM422.495 47.288C421.599 47.288 420.815 47.12 420.143 46.784C419.471 46.448 418.927 45.976 418.511 45.368L418.175 47H415.439V29.72H418.511V36.8C418.895 36.272 419.399 35.808 420.023 35.408C420.663 35.008 421.487 34.808 422.495 34.808C423.615 34.808 424.615 35.08 425.495 35.624C426.375 36.168 427.071 36.912 427.583 37.856C428.095 38.8 428.351 39.872 428.351 41.072C428.351 42.272 428.095 43.344 427.583 44.288C427.071 45.216 426.375 45.952 425.495 46.496C424.615 47.024 423.615 47.288 422.495 47.288ZM421.847 44.6C422.823 44.6 423.631 44.272 424.271 43.616C424.911 42.96 425.231 42.112 425.231 41.072C425.231 40.032 424.911 39.176 424.271 38.504C423.631 37.832 422.823 37.496 421.847 37.496C420.855 37.496 420.039 37.832 419.399 38.504C418.775 39.16 418.463 40.008 418.463 41.048C418.463 42.088 418.775 42.944 419.399 43.616C420.039 44.272 420.855 44.6 421.847 44.6ZM436.879 47.288C435.679 47.288 434.615 47.032 433.687 46.52C432.759 46.008 432.031 45.288 431.503 44.36C430.975 43.432 430.711 42.36 430.711 41.144C430.711 39.912 430.967 38.816 431.479 37.856C432.007 36.896 432.727 36.152 433.639 35.624C434.567 35.08 435.655 34.808 436.903 34.808C438.071 34.808 439.103 35.064 439.999 35.576C440.895 36.088 441.591 36.792 442.087 37.688C442.599 38.568 442.855 39.552 442.855 40.64C442.855 40.816 442.847 41 442.831 41.192C442.831 41.384 442.823 41.584 442.807 41.792H433.759C433.823 42.72 434.143 43.448 434.719 43.976C435.311 44.504 436.023 44.768 436.855 44.768C437.479 44.768 437.999 44.632 438.415 44.36C438.847 44.072 439.167 43.704 439.375 43.256H442.495C442.271 44.008 441.895 44.696 441.367 45.32C440.855 45.928 440.215 46.408 439.447 46.76C438.695 47.112 437.839 47.288 436.879 47.288ZM436.903 37.304C436.151 37.304 435.487 37.52 434.911 37.952C434.335 38.368 433.967 39.008 433.807 39.872H439.735C439.687 39.088 439.399 38.464 438.871 38C438.343 37.536 437.687 37.304 436.903 37.304Z" fill="white"/>
<path d="M606.252 47.288C604.62 47.288 603.308 46.832 602.316 45.92C601.34 44.992 600.852 43.68 600.852 41.984H603.924C603.94 42.768 604.124 43.392 604.476 43.856C604.828 44.32 605.396 44.552 606.18 44.552C606.916 44.552 607.452 44.336 607.788 43.904C608.124 43.456 608.292 42.872 608.292 42.152V30.2H611.364V42.152C611.364 43.8 610.9 45.072 609.972 45.968C609.06 46.848 607.82 47.288 606.252 47.288ZM620.273 47.288C619.121 47.288 618.081 47.024 617.153 46.496C616.241 45.968 615.513 45.24 614.969 44.312C614.441 43.368 614.177 42.28 614.177 41.048C614.177 39.816 614.449 38.736 614.993 37.808C615.537 36.864 616.265 36.128 617.177 35.6C618.105 35.072 619.145 34.808 620.297 34.808C621.433 34.808 622.457 35.072 623.369 35.6C624.297 36.128 625.025 36.864 625.553 37.808C626.097 38.736 626.369 39.816 626.369 41.048C626.369 42.28 626.097 43.368 625.553 44.312C625.025 45.24 624.297 45.968 623.369 46.496C622.441 47.024 621.409 47.288 620.273 47.288ZM620.273 44.624C621.073 44.624 621.769 44.328 622.361 43.736C622.953 43.128 623.249 42.232 623.249 41.048C623.249 39.864 622.953 38.976 622.361 38.384C621.769 37.776 621.081 37.472 620.297 37.472C619.481 37.472 618.777 37.776 618.185 38.384C617.609 38.976 617.321 39.864 617.321 41.048C617.321 42.232 617.609 43.128 618.185 43.736C618.777 44.328 619.473 44.624 620.273 44.624ZM630.772 33.248C630.212 33.248 629.748 33.08 629.38 32.744C629.028 32.408 628.852 31.984 628.852 31.472C628.852 30.96 629.028 30.544 629.38 30.224C629.748 29.888 630.212 29.72 630.772 29.72C631.332 29.72 631.788 29.888 632.14 30.224C632.508 30.544 632.692 30.96 632.692 31.472C632.692 31.984 632.508 32.408 632.14 32.744C631.788 33.08 631.332 33.248 630.772 33.248ZM629.236 47V35.096H632.308V47H629.236ZM635.515 47V35.096H638.227L638.467 37.112C638.835 36.408 639.363 35.848 640.051 35.432C640.755 35.016 641.579 34.808 642.523 34.808C643.995 34.808 645.139 35.272 645.955 36.2C646.771 37.128 647.179 38.488 647.179 40.28V47H644.107V40.568C644.107 39.544 643.899 38.76 643.483 38.216C643.067 37.672 642.419 37.4 641.539 37.4C640.675 37.4 639.963 37.704 639.403 38.312C638.859 38.92 638.587 39.768 638.587 40.856V47H635.515ZM661.667 47.288C660.451 47.288 659.379 47.024 658.451 46.496C657.523 45.968 656.787 45.232 656.243 44.288C655.715 43.344 655.451 42.264 655.451 41.048C655.451 39.832 655.715 38.752 656.243 37.808C656.787 36.864 657.523 36.128 658.451 35.6C659.379 35.072 660.451 34.808 661.667 34.808C663.187 34.808 664.467 35.208 665.507 36.008C666.547 36.792 667.211 37.88 667.499 39.272H664.259C664.099 38.696 663.779 38.248 663.299 37.928C662.835 37.592 662.283 37.424 661.643 37.424C660.795 37.424 660.075 37.744 659.483 38.384C658.891 39.024 658.595 39.912 658.595 41.048C658.595 42.184 658.891 43.072 659.483 43.712C660.075 44.352 660.795 44.672 661.643 44.672C662.283 44.672 662.835 44.512 663.299 44.192C663.779 43.872 664.099 43.416 664.259 42.824H667.499C667.211 44.168 666.547 45.248 665.507 46.064C664.467 46.88 663.187 47.288 661.667 47.288ZM670.226 47V29.72H673.298V47H670.226ZM680.54 47.288C679.516 47.288 678.676 47.128 678.02 46.808C677.364 46.472 676.876 46.032 676.556 45.488C676.236 44.944 676.076 44.344 676.076 43.688C676.076 42.584 676.508 41.688 677.372 41C678.236 40.312 679.532 39.968 681.26 39.968H684.284V39.68C684.284 38.864 684.052 38.264 683.588 37.88C683.124 37.496 682.548 37.304 681.86 37.304C681.236 37.304 680.692 37.456 680.228 37.76C679.764 38.048 679.476 38.48 679.364 39.056H676.364C676.444 38.192 676.732 37.44 677.228 36.8C677.74 36.16 678.396 35.672 679.196 35.336C679.996 34.984 680.892 34.808 681.884 34.808C683.58 34.808 684.916 35.232 685.892 36.08C686.868 36.928 687.356 38.128 687.356 39.68V47H684.74L684.452 45.08C684.1 45.72 683.604 46.248 682.964 46.664C682.34 47.08 681.532 47.288 680.54 47.288ZM681.236 44.888C682.116 44.888 682.796 44.6 683.276 44.024C683.772 43.448 684.084 42.736 684.212 41.888H681.596C680.78 41.888 680.196 42.04 679.844 42.344C679.492 42.632 679.316 42.992 679.316 43.424C679.316 43.888 679.492 44.248 679.844 44.504C680.196 44.76 680.66 44.888 681.236 44.888ZM695.208 47.288C694.152 47.288 693.224 47.12 692.424 46.784C691.624 46.432 690.984 45.952 690.504 45.344C690.024 44.736 689.736 44.032 689.64 43.232H692.736C692.832 43.696 693.088 44.096 693.504 44.432C693.936 44.752 694.488 44.912 695.16 44.912C695.832 44.912 696.32 44.776 696.624 44.504C696.944 44.232 697.104 43.92 697.104 43.568C697.104 43.056 696.88 42.712 696.432 42.536C695.984 42.344 695.36 42.16 694.56 41.984C694.048 41.872 693.528 41.736 693 41.576C692.472 41.416 691.984 41.216 691.536 40.976C691.104 40.72 690.752 40.4 690.48 40.016C690.208 39.616 690.072 39.128 690.072 38.552C690.072 37.496 690.488 36.608 691.32 35.888C692.168 35.168 693.352 34.808 694.872 34.808C696.28 34.808 697.4 35.136 698.232 35.792C699.08 36.448 699.584 37.352 699.744 38.504H696.84C696.664 37.624 696 37.184 694.848 37.184C694.272 37.184 693.824 37.296 693.504 37.52C693.2 37.744 693.048 38.024 693.048 38.36C693.048 38.712 693.28 38.992 693.744 39.2C694.208 39.408 694.824 39.6 695.592 39.776C696.424 39.968 697.184 40.184 697.872 40.424C698.576 40.648 699.136 40.992 699.552 41.456C699.968 41.904 700.176 42.552 700.176 43.4C700.192 44.136 700 44.8 699.6 45.392C699.2 45.984 698.624 46.448 697.872 46.784C697.12 47.12 696.232 47.288 695.208 47.288ZM707.817 47.288C706.761 47.288 705.833 47.12 705.033 46.784C704.233 46.432 703.593 45.952 703.113 45.344C702.633 44.736 702.345 44.032 702.249 43.232H705.345C705.441 43.696 705.697 44.096 706.113 44.432C706.545 44.752 707.097 44.912 707.769 44.912C708.441 44.912 708.929 44.776 709.233 44.504C709.553 44.232 709.713 43.92 709.713 43.568C709.713 43.056 709.489 42.712 709.041 42.536C708.593 42.344 707.969 42.16 707.169 41.984C706.657 41.872 706.137 41.736 705.609 41.576C705.081 41.416 704.593 41.216 704.145 40.976C703.713 40.72 703.361 40.4 703.089 40.016C702.817 39.616 702.681 39.128 702.681 38.552C702.681 37.496 703.097 36.608 703.929 35.888C704.777 35.168 705.961 34.808 707.481 34.808C708.889 34.808 710.009 35.136 710.841 35.792C711.689 36.448 712.193 37.352 712.353 38.504H709.449C709.273 37.624 708.609 37.184 707.457 37.184C706.881 37.184 706.433 37.296 706.113 37.52C705.809 37.744 705.657 38.024 705.657 38.36C705.657 38.712 705.889 38.992 706.353 39.2C706.817 39.408 707.433 39.6 708.201 39.776C709.033 39.968 709.793 40.184 710.481 40.424C711.185 40.648 711.745 40.992 712.161 41.456C712.577 41.904 712.785 42.552 712.785 43.4C712.801 44.136 712.609 44.8 712.209 45.392C711.809 45.984 711.233 46.448 710.481 46.784C709.729 47.12 708.841 47.288 707.817 47.288Z" fill="white"/>
<path d="M266.707 40.7071C267.098 40.3166 267.098 39.6834 266.707 39.2929L260.343 32.9289C259.953 32.5384 259.319 32.5384 258.929 32.9289C258.538 33.3195 258.538 33.9526 258.929 34.3431L264.586 40L258.929 45.6569C258.538 46.0474 258.538 46.6805 258.929 47.0711C259.319 47.4616 259.953 47.4616 260.343 47.0711L266.707 40.7071ZM210 40V41H266V40V39H210V40Z" fill="white"/>
<path d="M540.707 40.7071C541.098 40.3166 541.098 39.6834 540.707 39.2929L534.343 32.9289C533.953 32.5384 533.319 32.5384 532.929 32.9289C532.538 33.3195 532.538 33.9526 532.929 34.3431L538.586 40L532.929 45.6569C532.538 46.0474 532.538 46.6805 532.929 47.0711C533.319 47.4616 533.953 47.4616 534.343 47.0711L540.707 40.7071ZM484 40V41H540V40V39H484V40Z" fill="white"/>
<defs>
<linearGradient id="paint0_linear_1043_279" x1="363.774" y1="40" x2="327.125" y2="213.156" gradientUnits="userSpaceOnUse">
<stop stop-color="#FBC343"/>
<stop offset="1" stop-color="#FF7353"/>
</linearGradient>
</defs>
</svg>
